<svg version="1.1" viewBox="0 0 66 66" xml:space="preserve" xmlns="http://www.w3.org/2000/svg"><defs><clipPath id="clipPath18"><path d="m0 65.5h65.5v-65.5h-65.5z"/></clipPath></defs><g transform="matrix(1.3333 0 0 -1.3333 0 66)"><g transform="matrix(.75573 0 0 .75573 0 4.8855e-5)"><g clip-path="url(#clipPath18)"><g transform="translate(48.75 .7502)"><path d="m0 0h-32c-8.836 0-16 7.163-16 16v32c0 8.836 7.164 16 16 16h32c8.836 0 16-7.164 16-16v-32c0-8.837-7.164-16-16-16z" fill="none" stroke="#00bfa5" stroke-linejoin="round" stroke-miterlimit="10" stroke-width="1.5"/></g><g transform="translate(16.75 8.7497)"><path d="m0 0c-4.411 0-8 3.588-8 8v32c0 4.411 3.589 8 8 8h32c4.412 0 8-3.589 8-8v-32c0-4.412-3.588-8-8-8z" fill="none" stroke="#00bfa5" stroke-linejoin="round" stroke-miterlimit="10" stroke-width="1.5"/></g><g transform="translate(30.098 45.417)"><path d="m0 0v-25.324h-5.717c-0.995 0-1.809 0.804-1.809 1.808v21.707c0 0.995 0.814 1.809 1.809 1.809z" fill="none" stroke="#00bfa5" stroke-linejoin="round" stroke-miterlimit="10" stroke-width="1.5"/></g><g transform="translate(42.962 43.608)"><path d="m0 0v-21.707c0-1.003-0.805-1.808-1.809-1.808h-5.717v25.324h5.717c1.004 0 1.809-0.814 1.809-1.809z" fill="none" stroke="#00bfa5" stroke-linejoin="round" stroke-miterlimit="10" stroke-width="1.5"/></g></g></g></g></svg>
