<svg version="1.1" viewBox="0 0 64.997 65" xml:space="preserve" xmlns="http://www.w3.org/2000/svg"><defs><clipPath id="clipPath22"><path d="m0 64.004h64v-64.004h-64z"/></clipPath></defs><g transform="matrix(1.3333 0 0 -1.3333 -.00026667 65.001)"><g transform="matrix(.76168 0 0 .76168 19.08 29.146)"><path d="m0 0 4.828-3.95 9.108 6.803" fill="none" stroke="#00bfa5" stroke-linecap="round" stroke-linejoin="round" stroke-miterlimit="10" stroke-width="1.5"/></g><g transform="matrix(.76168 0 0 .76168 4.7663e-5 9.5327e-5)"><g clip-path="url(#clipPath22)"><g transform="translate(46.117 38.104)"><path d="m0 0c0-7.797-6.321-14.117-14.117-14.117-7.797 0-14.117 6.32-14.117 14.117s6.32 14.117 14.117 14.117c7.796 0 14.117-6.32 14.117-14.117z" fill="none" stroke="#00bfa5" stroke-linecap="round" stroke-linejoin="round" stroke-miterlimit="10" stroke-width="1.5"/></g><g transform="translate(58 64.003)"><path d="m0 0h-52c-3.32 0-6-2.821-6-6.293v-39.692c0-3.472 2.68-6.294 6-6.294h3.681v-9.83c0-1.149 0.894-1.894 1.818-1.894 0.478 0 0.965 0.2 1.339 0.648l9.263 11.076h35.899c3.313 0 6 2.818 6 6.294v39.692c0 3.476-2.687 6.293-6 6.293m0-1.5c2.481 0 4.5-2.15 4.5-4.793v-39.692c0-2.643-2.019-4.794-4.5-4.794h-35.899c-0.445 0-0.866-0.197-1.151-0.538l-9.263-11.077c-0.091-0.109-0.16-0.109-0.188-0.109-0.089 0-0.318 0.07-0.318 0.394v9.83c0 0.828-0.672 1.5-1.5 1.5h-3.681c-2.481 0-4.5 2.151-4.5 4.794v39.692c0 2.643 2.019 4.793 4.5 4.793h52" fill="#00bfa5"/></g><g transform="translate(7.2502 56.975)"><path d="m0 0h49.5" fill="none" stroke="#00bfa5" stroke-linecap="round" stroke-linejoin="round" stroke-miterlimit="10" stroke-width="1.5"/></g><g transform="translate(56.755 49.343)"><path d="m0 0h-16.21" fill="none" stroke="#00bfa5" stroke-linecap="round" stroke-linejoin="round" stroke-miterlimit="10" stroke-width="1.5"/></g><g transform="translate(23.455 49.343)"><path d="m0 0h-16.2" fill="none" stroke="#00bfa5" stroke-linecap="round" stroke-linejoin="round" stroke-miterlimit="10" stroke-width="1.5"/></g><g transform="translate(56.755 41.704)"><path d="m0 0h-11.1" fill="none" stroke="#00bfa5" stroke-linecap="round" stroke-linejoin="round" stroke-miterlimit="10" stroke-width="1.5"/></g><g transform="translate(18.345 41.704)"><path d="m0 0h-11.09" fill="none" stroke="#00bfa5" stroke-linecap="round" stroke-linejoin="round" stroke-miterlimit="10" stroke-width="1.5"/></g><g transform="translate(56.755 34.074)"><path d="m0 0h-11.22" fill="none" stroke="#00bfa5" stroke-linecap="round" stroke-linejoin="round" stroke-miterlimit="10" stroke-width="1.5"/></g><g transform="translate(18.465 34.074)"><path d="m0 0h-11.21" fill="none" stroke="#00bfa5" stroke-linecap="round" stroke-linejoin="round" stroke-miterlimit="10" stroke-width="1.5"/></g><g transform="translate(56.755 26.434)"><path d="m0 0h-16.8" fill="none" stroke="#00bfa5" stroke-linecap="round" stroke-linejoin="round" stroke-miterlimit="10" stroke-width="1.5"/></g><g transform="translate(24.055 26.434)"><path d="m0 0h-16.8" fill="none" stroke="#00bfa5" stroke-linecap="round" stroke-linejoin="round" stroke-miterlimit="10" stroke-width="1.5"/></g><g transform="translate(7.2502 18.804)"><path d="m0 0h49.5" fill="none" stroke="#00bfa5" stroke-linecap="round" stroke-linejoin="round" stroke-miterlimit="10" stroke-width="1.5"/></g></g></g></g></svg>
