<svg version="1.1" viewBox="0 0 64.944 65" xml:space="preserve" xmlns="http://www.w3.org/2000/svg"><defs><clipPath id="clipPath18"><path d="M 0,64.017 H 63.961 V 0 H 0 Z"/></clipPath></defs><g transform="matrix(1.3333 0 0 -1.3333 -.00013333 65.001)"><g transform="matrix(.76152 0 0 .76152 2.3848e-5 9.5391e-5)"><g clip-path="url(#clipPath18)"><g transform="translate(17.449 43.008)"><path d="m0 0c-0.742-1.788-1.152-3.75-1.152-5.809 0-5.2 2.606-9.791 6.588-12.575 2.528-1.779 5.612-2.813 8.95-2.813 3.239 0 6.246 0.977 8.734 2.658 4.119 2.774 6.813 7.443 6.813 12.73 0 1.179-0.137 2.33-0.391 3.431 0 0 6.451 21.98-10.433 21.98s-22.894 0.657-22.894 0.657l1.598-14.17s-0.067-3.45 2.187-6.089z" fill="none" stroke="#00bfa5" stroke-linejoin="round" stroke-miterlimit="10" stroke-width="1.5"/></g><g transform="translate(22.885 24.624)"><path d="m0 0v-6.698l8.842-5.35 8.842 5.35v6.543c-2.488-1.681-5.495-2.658-8.734-2.658-3.338 0-6.422 1.034-8.95 2.813z" fill="none" stroke="#00bfa5" stroke-linejoin="round" stroke-miterlimit="10" stroke-width="1.5"/></g><g transform="translate(.7501 .7984)"><path d="m0 0v-0.048h62.461c0 7.944-5.865 14.691-13.8 15.87l-8.842 1.305-8.842-5.35-8.842 5.35-8.374-1.266c-7.915-1.198-13.761-7.935-13.761-15.861z" fill="none" stroke="#00bfa5" stroke-linejoin="round" stroke-miterlimit="10" stroke-width="1.5"/></g><g transform="translate(50.6 5.4)"><path d="m0 0v-4.514" fill="none" stroke="#00bfa5" stroke-linecap="round" stroke-linejoin="round" stroke-miterlimit="10" stroke-width="1.5"/></g><g transform="translate(12.863 5.4)"><path d="m0 0v-4.514" fill="none" stroke="#00bfa5" stroke-linecap="round" stroke-linejoin="round" stroke-miterlimit="10" stroke-width="1.5"/></g><g transform="translate(30.669 35.517)"><path d="m0 0c0 2.224 0.79 4.121 2.371 5.691v-0.017l2.897 2.676c1.173 1.163 1.761 2.574 1.761 4.234 0 1.649-0.588 3.049-1.761 4.201-1.152 1.163-2.559 1.744-4.218 1.744-1.649 0-3.06-0.581-4.234-1.744-1.152-1.163-1.728-2.564-1.728-4.201" fill="none" stroke="#00bfa5" stroke-linecap="round" stroke-linejoin="round" stroke-miterlimit="10" stroke-width="1.5"/></g><g transform="translate(31.411 31.785)"><path d="m0 0c0-0.212-0.073-0.391-0.217-0.536-0.145-0.145-0.324-0.217-0.536-0.217-0.218 0-0.394 0.072-0.53 0.217-0.145 0.145-0.217 0.324-0.217 0.536 0 0.213 0.072 0.389 0.217 0.529 0.136 0.145 0.312 0.218 0.53 0.218 0.212 0 0.391-0.073 0.536-0.218 0.144-0.14 0.217-0.316 0.217-0.529" fill="#00bfa5"/></g><g transform="translate(22.885 17.926)"><path d="m0 0-5.707-0.863 8.579-8.075 5.97 3.588" fill="none" stroke="#00bfa5" stroke-linecap="round" stroke-linejoin="round" stroke-miterlimit="10" stroke-width="1.5"/></g><g transform="translate(40.569 17.926)"><path d="m0 0 5.707-0.863-8.579-8.075-5.97 3.588" fill="none" stroke="#00bfa5" stroke-linecap="round" stroke-linejoin="round" stroke-miterlimit="10" stroke-width="1.5"/></g></g></g></g></svg>
