<?xml version="1.0" encoding="UTF-8" standalone="no"?>
<svg
   xmlns:dc="http://purl.org/dc/elements/1.1/"
   xmlns:cc="http://creativecommons.org/ns#"
   xmlns:rdf="http://www.w3.org/1999/02/22-rdf-syntax-ns#"
   xmlns:svg="http://www.w3.org/2000/svg"
   xmlns="http://www.w3.org/2000/svg"
   xmlns:sodipodi="http://sodipodi.sourceforge.net/DTD/sodipodi-0.dtd"
   xmlns:inkscape="http://www.inkscape.org/namespaces/inkscape"
   version="1.1"
   viewBox="0 0 71.906 25"
   xml:space="preserve"
   id="svg149"
   sodipodi:docname="buy-american-express.1.svg"
   inkscape:version="0.92.2 2405546, 2018-03-11"><metadata
     id="metadata153"><rdf:RDF><cc:Work
         rdf:about=""><dc:format>image/svg+xml</dc:format><dc:type
           rdf:resource="http://purl.org/dc/dcmitype/StillImage" /></cc:Work></rdf:RDF></metadata><sodipodi:namedview
     pagecolor="#ffffff"
     bordercolor="#666666"
     borderopacity="1"
     objecttolerance="10"
     gridtolerance="10"
     guidetolerance="10"
     inkscape:pageopacity="0"
     inkscape:pageshadow="2"
     inkscape:window-width="1920"
     inkscape:window-height="1006"
     id="namedview151"
     showgrid="false"
     inkscape:zoom="12.09913"
     inkscape:cx="29.210206"
     inkscape:cy="12.059879"
     inkscape:window-x="0"
     inkscape:window-y="0"
     inkscape:window-maximized="1"
     inkscape:current-layer="g147" /><defs
     id="defs41"><clipPath
       id="clipPath18"><path
         d="m0 32h92.039v-32h-92.039z"
         id="path2" /></clipPath><clipPath
       id="clipPath26"><path
         d="m2.5045 30.706h88.392v-29.12h-88.392z"
         id="path5" /></clipPath><clipPath
       id="clipPath30"><path
         d="m2.5045 30.56h27.758v-11.44h-27.758z"
         id="path8" /></clipPath><clipPath
       id="clipPath34"><path
         d="m55.494 30.56h28.537v-11.586h-28.537z"
         id="path11" /></clipPath><clipPath
       id="clipPath38"><path
         d="m51.843 30.706h3.694v-11.586h-3.694z"
         id="path14" /></clipPath><clipPath
       id="clipPath42"><path
         d="m40.591 30.56h11.003v-11.586h-11.003z"
         id="path17" /></clipPath><clipPath
       id="clipPath46"><path
         d="m30.803 30.56h9.3931v-11.586h-9.3931z"
         id="path20" /></clipPath><clipPath
       id="clipPath50"><path
         d="m80.769 13.324h10.128v-11.738h-10.128z"
         id="path23" /></clipPath><clipPath
       id="clipPath54"><path
         d="m71.273 13.324h9.9819v-11.738h-9.9819z"
         id="path26" /></clipPath><clipPath
       id="clipPath58"><path
         d="m61.922 13.172h9.3928v-11.586h-9.3928z"
         id="path29" /></clipPath><clipPath
       id="clipPath62"><path
         d="m50.67 13.172h11.003v-11.586h-11.003z"
         id="path32" /></clipPath><clipPath
       id="clipPath66"><path
         d="m22.182 13.026h28.829v-11.44h-28.829z"
         id="path35" /></clipPath><clipPath
       id="clipPath200"><path
         d="m0 32h92.039v-32h-92.039z"
         id="path38" /></clipPath></defs><g
     transform="matrix(1.3333 0 0 -1.3333 -.00066667 25)"
     id="g147"><g
       transform="matrix(.58594 0 0 .58594 .00020703 0)"
       id="g105"><g
         clip-path="url(#clipPath18)"
         id="g103"><g
           clip-path="url(#clipPath26)"
           opacity=".25"
           id="g101"><g
             clip-path="url(#clipPath30)"
             opacity=".39999"
             id="g47"><g
               transform="translate(10.209 24.715)"
               id="g45"><path
                 d="m0 0-0.714 1.82-0.717-1.82zm16.353-5.595v5.73l-1.456-3.335-0.036 0.054-1.168-2.449h-2.823l-2.506 5.733v-5.733h-5.958l-1.021 2.188h-4.196l-1.021-2.188h-3.873l4.833 11.44h4.459l3.083-7.368v7.368h4.941l1.644-3.593-9e-3 -7e-3 1.16-2.509 2.546 6.109h5.101v-11.44z"
                 fill="#2fabf7"
                 id="path43"
                 style="fill:#ffffff;fill-opacity:1" /></g></g><g
             clip-path="url(#clipPath34)"
             opacity=".39999"
             id="g53"><g
               transform="translate(67.92 24.715)"
               id="g51"><path
                 d="m0 0-0.741 1.883-0.805-1.883zm-8.347 2.003c-0.268-0.293-0.53-0.977-0.53-1.881 0-1.101 0.146-1.639 0.557-2.05 0.285-0.288 0.679-0.411 1.32-0.411h0.622l1.996 4.776h-2.472c-0.756 0-1.06-0.115-1.493-0.434m1.347-7.744c-0.779 0-2.721 0.131-3.935 1.345-1.031 1.031-1.49 2.378-1.49 4.372 0 1.894 0.478 3.364 1.461 4.494 0.768 0.922 2.115 1.375 4.11 1.375h2.947v-2.274l0.889 2.128h4.461l3.077-7.364v7.364h4.605l3.287-5.547v5.547h3.7v-11.294h-4.171l-3.722 6.165v-6.165h-5.989l-0.875 2.188h-4.283l-0.874-2.334z"
                 fill="#2fabf7"
                 id="path49"
                 style="fill:#ffffff;fill-opacity:1" /></g></g><g
             clip-path="url(#clipPath38)"
             opacity=".39999"
             id="g57"><path
               d="m51.843 30.706h3.694v-11.586h-3.694z"
               fill="#2fabf7"
               id="path55"
               style="fill:#ffffff;fill-opacity:1" /></g><g
             clip-path="url(#clipPath42)"
             opacity=".39999"
             id="g63"><g
               transform="translate(46.606 26.033)"
               id="g61"><path
                 d="m0 0c0.326 0 0.731 0 0.895 0.082 0.014 0.019 0.101 0.189 0.101 0.478v0.074l0.018 0.073c0.058 0.229-4e-3 0.272-0.119 0.33-0.163 0.081-0.569 0.081-0.895 0.081h-2.315v-1.118zm1.288-7.06v1.92c0 0.49 0 1.222-0.291 1.65-0.226 0.209-0.441 0.227-1.289 0.227h-2.023v-3.797h-3.7v11.586h6.161c1.367 0 2.354 0 3.233-0.522 0.971-0.582 1.463-1.545 1.463-2.861 0-1.2-0.489-2.088-1.103-2.67 0.274-0.192 0.479-0.398 0.634-0.552l0.069-0.07 0.044-0.088c0.326-0.651 0.502-1.19 0.502-2.173v-2.65z"
                 fill="#2fabf7"
                 id="path59"
                 style="fill:#ffffff;fill-opacity:1" /></g></g><g
             clip-path="url(#clipPath46)"
             opacity=".39999"
             id="g69"><g
               transform="translate(30.803 18.974)"
               id="g67"><path
                 d="m0 0v11.586h9.393v-3.408h-5.693v-0.68h5.547v-3.263h-5.547v-0.833h5.693v-3.402z"
                 fill="#2fabf7"
                 id="path65"
                 style="fill:#ffffff;fill-opacity:1" /></g></g><g
             clip-path="url(#clipPath50)"
             opacity=".39999"
             id="g75"><g
               transform="translate(81.06 1.586)"
               id="g73"><path
                 d="m0 0v3.408h5.28c0.433 0 0.494 0.012 0.596 0.113 0.04 0.041 0.114 0.18 0.114 0.3 0 0.121-0.074 0.26-0.112 0.298-0.033 0.033-0.174 0.115-0.446 0.115-0.236 0.015-0.436 0.025-0.637 0.036-2.147 0.114-5.087 0.269-5.087 3.792 0 1.696 1.078 3.675 4.114 3.675h5.431v-3.699h-4.994c-0.364 0-0.551-3e-3 -0.699-0.06-6e-3 -0.058-6e-3 -0.149-6e-3 -0.214 0-0.04 2e-3 -0.07 4e-3 -0.088 0.028-0.015 0.078-0.035 0.164-0.065l0.041-0.013 0.038-0.02c0.156-0.077 0.331-0.081 0.604-0.081h1.318c1.381 0 2.366-0.298 3.081-0.935 0.197-0.084 0.336-0.249 0.403-0.434 0.418-0.609 0.629-1.384 0.629-2.307 0-1.038-0.356-1.92-1.059-2.623-0.773-0.772-2.015-1.198-3.497-1.198z"
                 fill="#2fabf7"
                 id="path71"
                 style="fill:#ffffff;fill-opacity:1" /></g></g><g
             clip-path="url(#clipPath54)"
             opacity=".39999"
             id="g81"><g
               transform="translate(71.564 1.586)"
               id="g79"><path
                 d="m0 0v3.408h5.28c0.433 0 0.494 0.012 0.596 0.113 0.04 0.041 0.115 0.18 0.115 0.3 0 0.121-0.075 0.26-0.113 0.298-0.033 0.033-0.176 0.115-0.453 0.115-0.235 0.015-0.434 0.026-0.635 0.036-2.144 0.114-5.082 0.27-5.082 3.792 0 1.696 1.078 3.675 4.114 3.675h5.425v-3.699h-5.134c-0.364 0-0.551-3e-3 -0.699-0.06-6e-3 -0.058-6e-3 -0.149-6e-3 -0.214 0.029-0.077 0.161-0.142 0.248-0.186 0.155-0.077 0.33-0.081 0.603-0.081h1.318c1.465 0 2.482-0.335 3.2-1.053 0.415-0.409 0.913-1.199 0.913-2.623 0-1.743-0.765-3.821-4.41-3.821z"
                 fill="#2fabf7"
                 id="path77"
                 style="fill:#ffffff;fill-opacity:1" /></g></g><g
             clip-path="url(#clipPath58)"
             opacity=".39999"
             id="g87"><g
               transform="translate(61.922,1.586)"
               id="g85"><path
                 d="m0 0v11.586h9.393v-3.402h-5.693v-0.687h5.547v-3.263h-5.547v-0.826h5.693v-3.408z"
                 fill="#2fabf7"
                 id="path83"
                 style="fill:#ffffff;fill-opacity:1" /></g></g><g
             clip-path="url(#clipPath62)"
             opacity=".39999"
             id="g93"><g
               transform="translate(56.831 8.5)"
               id="g91"><path
                 d="m0 0c0.326 0 0.732 0 0.896 0.081 0.017 0.02 0.106 0.19 0.106 0.478v0.074l0.019 0.072c0.057 0.232-7e-3 0.277-0.125 0.337-0.165 0.082-0.57 0.082-0.896 0.082h-2.314v-1.124zm1.148-6.914v1.926c0 0.369 0 1.349-0.262 1.608l-0.045 0.044-0.034 0.052c-0.112 0.167-0.637 0.167-1.244 0.167h-2.023v-3.797h-3.701v11.586h6.161c1.215 0 2.362 0 3.235-0.525 1.051-0.63 1.607-1.617 1.607-2.853 0-1.227-0.512-2.129-1.145-2.711 0.296-0.199 0.5-0.409 0.625-0.639 0.355-0.547 0.52-1.249 0.52-2.204v-2.654z"
                 fill="#2fabf7"
                 id="path89"
                 style="fill:#ffffff;fill-opacity:1" /></g></g><g
             clip-path="url(#clipPath66)"
             opacity=".39999"
             id="g99"><g
               transform="translate(46.314 8.3535)"
               id="g97"><path
                 d="m0 0c0.787 0 0.846 0.423 0.85 0.653-0.102 0.528-0.411 0.763-0.996 0.763h-2.46v-1.416zm-15.61-3.506 2.236 2.472-2.101 2.45h-5.249v-0.687h5.401v-3.262h-5.401v-0.973zm9.303-0.19v5.193l-2.367-2.549zm-1.99-3.072-2.605 2.997-0.072 0.078-2.941-3.075h-10.217v11.44h10.371l2.787-3.051 0.087 0.102 0.087-0.101 2.786 3.05h8.014c3.029 0 4.696-1.408 4.696-3.967-0.204-4.113-3.804-4.113-4.988-4.113h-2.314v-3.36z"
                 fill="#2fabf7"
                 id="path95"
                 style="fill:#ffffff;fill-opacity:1" /></g></g></g></g></g><g
       transform="matrix(.58594 0 0 .58594 6.5043 14.126)"
       id="g109"><path
         d="m0 0h-3.214l1.61 4.089z"
         fill="#2fabf7"
         id="path107"
         style="fill:#d3dfde;fill-opacity:1" /></g><g
       transform="matrix(.58594 0 0 .58594 .00020703 0)"
       id="g145"><g
         clip-path="url(#clipPath200)"
         id="g143"><g
           transform="translate(83.424 19.728)"
           id="g113"><path
             d="m0 0h-3.22l-4.672 7.74v-7.74h-4.97l-0.875 2.187h-5.116l-0.874-2.333h-2.777c-1.166 0-2.63 0.292-3.505 1.167s-1.313 2.047-1.313 3.943c0 1.464 0.292 2.922 1.313 4.095 0.729 0.875 2.047 1.166 3.651 1.166h2.339v-2.194h-2.339c-0.875 0-1.312-0.145-1.895-0.583-0.438-0.437-0.736-1.312-0.736-2.339 0-1.167 0.152-1.895 0.736-2.478 0.437-0.444 1.02-0.59 1.749-0.59h1.027l3.36 8.038h3.651l4.089-9.788v9.788h3.651l4.241-7.157v7.157h2.485zm-28.494 0h-2.479v10.371h2.479zm-3.944-0.146h-2.484v1.312c0 0.584 0 1.465-0.438 2.048-0.437 0.437-0.874 0.437-1.749 0.437h-2.631v-3.797h-2.485v10.371h5.553c1.312 0 2.187 0 2.922-0.438 0.729-0.437 1.167-1.166 1.167-2.339 0-1.603-1.021-2.484-1.756-2.776 0.735-0.146 1.172-0.583 1.464-0.875 0.292-0.583 0.437-1.021 0.437-1.901zm-11.397 8.177h-5.693v-1.895h5.547v-2.047h-5.547v-2.048h5.693v-2.187h-8.178v10.371h8.178zm-9.934-8.031h-2.484v8.031l-2.176-4.981-0.012 0.018-1.464-3.068h-2.041l-3.512 8.031v-8.031h-4.964l-1.02 2.187h-4.97l-1.021-2.187h-2.57l4.32 10.225h3.651l4.095-9.788v9.788h3.943l1.483-3.239-0.025 0.025 1.756-3.797 2.923 7.011h4.088zm49.383 12.272v-1.755l-0.875 1.755h-6.866v-1.755l-0.881 1.755h-9.35c-1.604 0-2.922-0.292-4.089-0.88v0.88h-6.574v-0.88c-0.729 0.588-1.609 0.88-2.776 0.88h-23.525l-1.604-3.651-1.61 3.651h-7.448v-1.755l-0.729 1.755h-6.428l-2.922-6.865-3.36-7.455h0.06l-0.06-0.145h7.448l0.055 0.145h0.091l0.875 2.194h1.902l0.874-2.339h8.476v1.756l0.729-1.756h4.241l0.729 1.756v-1.756h20.304v3.797h0.298c0.292 0 0.292 0 0.292-0.438v-3.214h10.516v0.875c0.875-0.437 2.194-0.875 3.944-0.875h4.386l0.875 2.339h2.047l0.875-2.339h8.476v2.194l1.312-2.194h6.866v14.32z"
             fill="#2fabf7"
             id="path111"
             style="fill:#d3dfde;fill-opacity:1" /></g><g
           transform="translate(33.75 7.3086)"
           id="g117"><path
             d="m0 0-2.776-3.068h-5.991v2.187h5.401v2.048h-5.401v1.901h6.137z"
             fill="#2fabf7"
             id="path115"
             style="fill:#d3dfde;fill-opacity:1" /></g><g
           transform="translate(89.408 3.2139)"
           id="g121"><path
             d="m0 0c-0.583-0.583-1.604-1.021-3.068-1.021h-4.672v2.194h4.672c0.443 0 0.735 0 1.027 0.291 0.145 0.146 0.291 0.437 0.291 0.729s-0.146 0.583-0.291 0.73c-0.146 0.145-0.438 0.291-0.875 0.291-2.339 0.152-5.116 0-5.116 3.221 0 1.458 0.875 3.067 3.506 3.067h4.824v-2.484h-4.387c-0.437 0-0.729 0-1.02-0.147-0.292-0.145-0.292-0.436-0.292-0.734 0-0.438 0.146-0.584 0.583-0.73 0.292-0.145 0.584-0.145 0.875-0.145h1.318c1.313 0 2.188-0.292 2.777-0.875 0.146 0 0.146-0.146 0.146-0.146 0.437-0.584 0.583-1.318 0.583-2.048 0-0.875-0.292-1.603-0.881-2.193m-12.564-1.021h-4.672v2.194h4.672c0.443 0 0.735 0 1.027 0.291 0.145 0.146 0.291 0.437 0.291 0.729s-0.146 0.583-0.291 0.73c-0.146 0.145-0.438 0.291-0.881 0.291-2.333 0.152-5.11 0-5.11 3.221 0 1.458 0.875 3.067 3.506 3.067h4.818v-2.484h-4.526c-0.438 0-0.729 0-1.021-0.147-0.292-0.145-0.292-0.436-0.292-0.734 0-0.438 0.292-0.584 0.584-0.73 0.291-0.145 0.583-0.145 0.874-0.145h1.318c1.313 0 2.188-0.292 2.771-0.875 0.444-0.438 0.735-1.173 0.735-2.194 0-2.193-1.318-3.214-3.803-3.214m-6.136 8.184h-5.693v-1.901h5.547v-2.048h-5.547v-2.041h5.693v-2.194h-8.178v10.372h8.178zm-10.08-4.24c0.292-0.438 0.438-1.022 0.438-1.897v-2.047h-2.479v1.319c0 0.583 0 1.603-0.444 2.041-0.291 0.437-0.875 0.437-1.75 0.437h-2.63v-3.797h-2.485v10.372h5.553c1.166 0 2.193 0 2.922-0.438 0.729-0.437 1.313-1.167 1.313-2.333 0-1.61-1.021-2.485-1.75-2.776 0.729-0.292 1.166-0.59 1.312-0.881m-14.605-0.584h-2.923v-3.36h-4.806l-2.794 3.214-7e-3 -0.011-0.139 0.157-3.214-3.36h-9.35v10.225h9.496l3.068-3.359 0.073 0.085 0.073-0.085 3.068 3.359h7.746c1.896 0 4.089-0.583 4.089-3.359-0.146-2.922-2.193-3.506-4.38-3.506m45.287 2.34v6.573h-6.136c-1.313 0-2.34-0.292-3.069-0.875v0.875h-6.719c-1.021 0-2.339-0.292-2.922-0.875v0.875h-11.836v-0.875c-0.875 0.729-2.485 0.875-3.214 0.875h-7.886v-0.875c-0.735 0.729-2.485 0.875-3.36 0.875h-8.767l-2.047-2.193-1.902 2.193h-13.148v-14.32h12.856l2.115 2.114 1.835-2.114h8.031v3.366h0.882c1.02 0 2.333 0 3.36 0.437v-3.949h6.573v3.804h0.292c0.437 0 0.437 0 0.437-0.438v-3.366h19.867c1.319 0 2.631 0.298 3.36 0.881v-0.881h6.282c1.318 0 2.631 0.146 3.512 0.735 1.458 0.875 2.333 2.479 2.333 4.38 0 1.022-0.292 2.048-0.729 2.778"
             fill="#2fabf7"
             id="path119"
             style="fill:#d3dfde;fill-opacity:1" /></g><g
           transform="translate(48.21 26.593)"
           id="g125"><path
             d="m0 0c0-0.437-0.146-0.875-0.437-1.021-0.292-0.146-0.73-0.146-1.167-0.146h-2.922v2.333h2.922c0.437 0 0.875 0 1.167-0.145 0.291-0.146 0.583-0.438 0.437-1.021"
             fill="#2fabf7"
             id="path123"
             style="fill:#d3dfde;fill-opacity:1" /></g><g
           transform="translate(68.812 24.108)"
           id="g129"><path
             d="m0 0h-3.359l1.749 4.089z"
             fill="#2fabf7"
             id="path127"
             style="fill:#d3dfde;fill-opacity:1" /></g><g
           transform="translate(40.615 11.398)"
           id="g133"><path
             d="m0 0v-8.329l-3.797 4.24z"
             fill="#2fabf7"
             id="path131"
             style="fill:#d3dfde;fill-opacity:1" /></g><g
           transform="translate(47.772 9.0586)"
           id="g137"><path
             d="m0 0c0-0.875-0.583-1.312-1.458-1.312h-3.214v2.63h3.068c0.875 0 1.458-0.437 1.604-1.318"
             fill="#2fabf7"
             id="path135"
             style="fill:#d3dfde;fill-opacity:1" /></g><g
           transform="translate(58.441 9.0586)"
           id="g141"><path
             d="m0 0c0-0.437-0.152-0.875-0.444-1.021-0.291-0.145-0.729-0.145-1.166-0.145h-2.923v2.339h2.923c0.437 0 0.875 0 1.166-0.147 0.292-0.145 0.59-0.436 0.444-1.026"
             fill="#2fabf7"
             id="path139"
             style="fill:#d3dfde;fill-opacity:1" /></g></g></g></g></svg>