<?xml version="1.0" encoding="UTF-8" standalone="no"?>
<svg
   xmlns:dc="http://purl.org/dc/elements/1.1/"
   xmlns:cc="http://creativecommons.org/ns#"
   xmlns:rdf="http://www.w3.org/1999/02/22-rdf-syntax-ns#"
   xmlns:svg="http://www.w3.org/2000/svg"
   xmlns="http://www.w3.org/2000/svg"
   xmlns:sodipodi="http://sodipodi.sourceforge.net/DTD/sodipodi-0.dtd"
   xmlns:inkscape="http://www.inkscape.org/namespaces/inkscape"
   version="1.1"
   viewBox="0 0 146.23 25"
   xml:space="preserve"
   id="svg1091"
   sodipodi:docname="buy-discover.1.svg"
   inkscape:version="0.92.2 2405546, 2018-03-11"><metadata
     id="metadata1095"><rdf:RDF><cc:Work
         rdf:about=""><dc:format>image/svg+xml</dc:format><dc:type
           rdf:resource="http://purl.org/dc/dcmitype/StillImage" /></cc:Work></rdf:RDF></metadata><sodipodi:namedview
     pagecolor="#ffffff"
     bordercolor="#666666"
     borderopacity="1"
     objecttolerance="10"
     gridtolerance="10"
     guidetolerance="10"
     inkscape:pageopacity="0"
     inkscape:pageshadow="2"
     inkscape:window-width="1920"
     inkscape:window-height="1006"
     id="namedview1093"
     showgrid="false"
     inkscape:zoom="8.4139085"
     inkscape:cx="74.741822"
     inkscape:cy="16.283757"
     inkscape:window-x="0"
     inkscape:window-y="0"
     inkscape:window-maximized="1"
     inkscape:current-layer="svg1091" /><defs
     id="defs1051"><clipPath
       id="clipPath18"><path
         d="M 0,21.841 H 127.749 V 0 H 0 Z"
         id="path1045" /></clipPath><clipPath
       id="clipPath26"><path
         d="m57.075 21.634h21.428v-21.428h-21.428z"
         id="path1048" /></clipPath></defs><g
     transform="matrix(1.3333 0 0 -1.3333 -4e-4 25)"
     id="g1089"><g
       transform="matrix(.85848 0 0 .85848 4.2457e-5 0)"
       id="g1087"><g
         clip-path="url(#clipPath18)"
         id="g1085"><g
           clip-path="url(#clipPath26)"
           opacity=".25"
           id="g1057"><g
             transform="translate(68.064 21.632)"
             id="g1055"><path
               d="m0 0c-0.142 3e-3 -0.285 3e-3 -0.427 0-5.846-0.08-10.562-4.848-10.562-10.712 0-5.919 4.798-10.714 10.714-10.714 5.867 0 10.631 4.713 10.712 10.562 2e-3 0.142 2e-3 0.286 0 0.427-0.041 2.674-1.072 5.333-3.088 7.349-2.017 2.017-4.675 3.047-7.349 3.088"
               fill="#2fabf7"
               id="path1053"
               style="fill:#d3dfde;fill-opacity:1" /></g></g><g
           transform="translate(39.355 10.92)"
           id="g1061"><path
             d="m0 0c0-5.976 4.739-10.509 10.714-10.509 1.649 0 3.091 0.412 4.946 1.237v4.739c-1.649-1.649-3.091-2.267-4.74-2.267-3.915 0-6.799 2.885-6.799 7.006 0 3.915 2.884 7.006 6.593 7.006 1.855 0 3.297-0.618 4.946-2.267v4.74c-1.649 0.824-3.091 1.236-4.946 1.236-5.769-0.412-10.714-5.151-10.714-10.921"
             fill="#2fabf7"
             id="path1059"
             style="fill:#d3dfde;fill-opacity:1" /></g><g
           transform="translate(87.364 7.4175)"
           id="g1065"><path
             d="m0 0-5.357 13.6h-4.328l8.449-20.812h2.266l8.86 20.812h-4.328z"
             fill="#2fabf7"
             id="path1063"
             style="fill:#d3dfde;fill-opacity:1" /></g><g
           transform="translate(98.902 .8238)"
           id="g1069"><path
             d="m0 0h11.333v3.297h-7.212v5.563h7.006v3.503h-7.006v4.327h7.212v3.503h-11.333z"
             fill="#2fabf7"
             id="path1067"
             style="fill:#d3dfde;fill-opacity:1" /></g><g
           transform="translate(10.508 5.7691)"
           id="g1073"><path
             d="m0 0c-1.236-1.03-2.885-1.648-5.357-1.648h-1.236v13.393h1.03c2.472 0 4.121-0.412 5.357-1.648 1.442-1.237 2.267-3.091 2.267-4.946 0.206-1.854-0.619-3.915-2.061-5.151m-4.739 15.248h-5.769v-20.193h5.769c3.091 0 5.357 0.824 7.212 2.266 2.266 1.855 3.709 4.74 3.709 7.83 0 5.976-4.328 10.097-10.921 10.097"
             fill="#2fabf7"
             id="path1071"
             style="fill:#d3dfde;fill-opacity:1" /></g><path
           d="m18.544 0.824h3.915v20.193h-3.915z"
           fill="#2fabf7"
           id="path1075"
           style="fill:#d3dfde;fill-opacity:1" /><g
           transform="translate(32.349 13.187)"
           id="g1079"><path
             d="m0 0c-2.472 0.824-3.09 1.442-3.09 2.473 0 1.236 1.236 2.266 2.884 2.266 1.236 0 2.267-0.412 3.297-1.648l2.06 2.679c-1.648 1.442-3.709 2.266-5.975 2.266-3.503 0-6.387-2.473-6.387-5.769 0-2.885 1.236-4.121 4.945-5.564 1.648-0.618 2.266-0.824 2.678-1.236 0.824-0.412 1.236-1.237 1.236-2.061 0-1.648-1.236-2.885-3.09-2.885s-3.503 1.031-4.327 2.679l-2.473-2.472c1.855-2.679 4.121-3.916 7.006-3.916 4.121 0 7.006 2.679 7.006 6.594 0 3.503-1.237 4.946-5.77 6.594"
             fill="#2fabf7"
             id="path1077"
             style="fill:#d3dfde;fill-opacity:1" /></g><g
           transform="translate(118.06 11.745)"
           id="g1083"><path
             d="m0 0h-1.236v6.182h1.236c2.473 0 3.915-1.031 3.915-3.091 0-2.061-1.442-3.091-3.915-3.091m3.297-2.473c3.091 0.619 4.739 2.679 4.739 5.77 0 3.709-2.679 5.975-7.212 5.975h-5.974v-20.193h3.914v8.036h0.618l5.563-8.036h4.74z"
             fill="#2fabf7"
             id="path1081"
             style="fill:#d3dfde;fill-opacity:1" /></g></g></g></g></svg>