<?xml version="1.0" encoding="UTF-8" standalone="no"?>
<svg
   xmlns:dc="http://purl.org/dc/elements/1.1/"
   xmlns:cc="http://creativecommons.org/ns#"
   xmlns:rdf="http://www.w3.org/1999/02/22-rdf-syntax-ns#"
   xmlns:svg="http://www.w3.org/2000/svg"
   xmlns="http://www.w3.org/2000/svg"
   xmlns:sodipodi="http://sodipodi.sourceforge.net/DTD/sodipodi-0.dtd"
   xmlns:inkscape="http://www.inkscape.org/namespaces/inkscape"
   version="1.1"
   viewBox="0 0 40.012 25"
   xml:space="preserve"
   id="svg1815"
   sodipodi:docname="buy-mastercard.1.svg"
   inkscape:version="0.92.2 2405546, 2018-03-11"><metadata
     id="metadata1819"><rdf:RDF><cc:Work
         rdf:about=""><dc:format>image/svg+xml</dc:format><dc:type
           rdf:resource="http://purl.org/dc/dcmitype/StillImage" /></cc:Work></rdf:RDF></metadata><sodipodi:namedview
     pagecolor="#ffffff"
     bordercolor="#666666"
     borderopacity="1"
     objecttolerance="10"
     gridtolerance="10"
     guidetolerance="10"
     inkscape:pageopacity="0"
     inkscape:pageshadow="2"
     inkscape:window-width="1920"
     inkscape:window-height="1006"
     id="namedview1817"
     showgrid="false"
     inkscape:zoom="213.60282"
     inkscape:cx="22.131706"
     inkscape:cy="13.40335"
     inkscape:window-x="0"
     inkscape:window-y="0"
     inkscape:window-maximized="1"
     inkscape:current-layer="svg1815" /><defs
     id="defs1753"><clipPath
       id="clipPath18"><path
         d="M 0,31.99 H 51.2 V 0 H 0 Z"
         id="path1747" /></clipPath><clipPath
       id="clipPath26"><path
         d="M 0,31.99 H 31.98 V 0 H 0 Z"
         id="path1750" /></clipPath></defs><g
     transform="matrix(1.3333 0 0 -1.3333 -.00026667 25)"
     id="g1813"><g
       transform="matrix(.58612 0 0 .58612 8.2776e-5 0)"
       id="g1811"><g
         clip-path="url(#clipPath18)"
         id="g1809"><g
           clip-path="url(#clipPath26)"
           opacity=".25"
           id="g1759"><g
             transform="translate(11.85 14.85)"
             id="g1757"><path
               d="m0 0c-0.47-0.31-0.63-0.869-0.08-1.02 0.48-0.16 1.11 0.151 1.26 0.63l0.08 0.55c-0.23 0-0.79 0.16-1.26-0.16-0.47-0.31-0.63-0.869-0.08-1.02 0.48-0.16 1.11 0.151 1.26 0.63l0.08 0.55c-0.23 0-0.79 0.16-1.26-0.16-0.47-0.31-0.63-0.869-0.08-1.02 0.48-0.16 1.11 0.151 1.26 0.63l0.08 0.55c-0.23 0-0.79 0.16-1.26-0.16m9.93 0.471c0 0.09 0.03 0.349 0.13 0.679h-0.99l-0.25-1.309c-0.02-0.101-0.03-0.2-0.01-0.29h1.18c-0.11 0.439-0.09 0.809-0.06 0.92m-9.93-0.471c-0.47-0.31-0.63-0.869-0.08-1.02 0.48-0.16 1.11 0.151 1.26 0.63l0.08 0.55c-0.23 0-0.79 0.16-1.26-0.16-0.47-0.31-0.63-0.869-0.08-1.02 0.48-0.16 1.11 0.151 1.26 0.63l0.08 0.55c-0.23 0-0.79 0.16-1.26-0.16m12.68 2.131c-0.63 0-1.02-0.32-1.18-0.95h1.81c0.08 0.549-0.07 0.95-0.63 0.95m-2.75-1.66c0 0.09 0.03 0.349 0.13 0.679h-0.99l-0.25-1.309c-0.02-0.101-0.03-0.2-0.01-0.29h1.18c-0.11 0.439-0.09 0.809-0.06 0.92m-9.93-0.471c-0.47-0.31-0.63-0.869-0.08-1.02 0.48-0.16 1.11 0.151 1.26 0.63l0.08 0.55c-0.23 0-0.79 0.16-1.26-0.16m12.68 2.131c-0.63 0-1.02-0.32-1.18-0.95h1.81c0.08 0.549-0.07 0.95-0.63 0.95m-12.68-2.131c-0.47-0.31-0.63-0.869-0.08-1.02 0.48-0.16 1.11 0.151 1.26 0.63l0.08 0.55c-0.23 0-0.79 0.16-1.26-0.16m12.68 2.131c-0.63 0-1.02-0.32-1.18-0.95h1.81c0.08 0.549-0.07 0.95-0.63 0.95m-2.75-1.66c0 0.09 0.03 0.349 0.13 0.679h-0.99l-0.25-1.309c-0.02-0.101-0.03-0.2-0.01-0.29h1.18c-0.11 0.439-0.09 0.809-0.06 0.92m-9.93-0.471c-0.47-0.31-0.63-0.869-0.08-1.02 0.48-0.16 1.11 0.151 1.26 0.63l0.08 0.55c-0.23 0-0.79 0.16-1.26-0.16m14.69 1.15c-0.01-0.379-0.07-0.74-0.12-0.99h-3.07c-0.03-0.25-0.01-0.449 0.04-0.609h3.37l0.32 1.599zm-2.01 0.981c-0.63 0-1.02-0.32-1.18-0.95h1.81c0.08 0.549-0.07 0.95-0.63 0.95m-12.68-2.131c-0.47-0.31-0.63-0.869-0.08-1.02 0.48-0.16 1.11 0.151 1.26 0.63l0.08 0.55c-0.23 0-0.79 0.16-1.26-0.16m12.68 2.131c-0.63 0-1.02-0.32-1.18-0.95h1.81c0.08 0.549-0.07 0.95-0.63 0.95m-2.75-1.66c0 0.09 0.03 0.349 0.13 0.679h-0.99l-0.25-1.309c-0.02-0.101-0.03-0.2-0.01-0.29h1.18c-0.11 0.439-0.09 0.809-0.06 0.92m-9.93-0.471c-0.47-0.31-0.63-0.869-0.08-1.02 0.48-0.16 1.11 0.151 1.26 0.63l0.08 0.55c-0.23 0-0.79 0.16-1.26-0.16m14.69 1.15c-0.01-0.379-0.07-0.74-0.12-0.99h-3.07c-0.03-0.25-0.01-0.449 0.04-0.609h3.37l0.32 1.599zm-2.01 0.981c-0.63 0-1.02-0.32-1.18-0.95h1.81c0.08 0.549-0.07 0.95-0.63 0.95m7.42 0.01c-0.17-0.231-0.28-0.531-0.33-0.88 0-0.04-0.01-0.071-0.01-0.111-0.07-0.58 0.04-1.04 0.3-1.349 0-0.09-0.01-0.17-0.02-0.25 0.02 0.08 0.02 0.16 0.03 0.239 0.04 0.45 0.06 0.9 0.06 1.36 0 0.33-0.01 0.661-0.03 0.991m-20.1-2.141c-0.47-0.31-0.63-0.869-0.08-1.02 0.48-0.16 1.11 0.151 1.26 0.63l0.08 0.55c-0.23 0-0.79 0.16-1.26-0.16m12.68 2.131c-0.63 0-1.02-0.32-1.18-0.95h1.81c0.08 0.549-0.07 0.95-0.63 0.95m-2.75-1.66c0 0.09 0.03 0.349 0.13 0.679h-0.99l-0.25-1.309c-0.02-0.101-0.03-0.2-0.01-0.29h1.18c-0.11 0.439-0.09 0.809-0.06 0.92m-9.93-0.471c-0.47-0.31-0.63-0.869-0.08-1.02 0.48-0.16 1.11 0.151 1.26 0.63l0.08 0.55c-0.23 0-0.79 0.16-1.26-0.16m14.69 1.15c-0.01-0.379-0.07-0.74-0.12-0.99h-3.07c-0.03-0.25-0.01-0.449 0.04-0.609h3.37l0.32 1.599zm-2.01 0.981c-0.63 0-1.02-0.32-1.18-0.95h1.81c0.08 0.549-0.07 0.95-0.63 0.95m-12.68-2.131c-0.47-0.31-0.63-0.869-0.08-1.02 0.48-0.16 1.11 0.151 1.26 0.63l0.08 0.55c-0.23 0-0.79 0.16-1.26-0.16m11.5 1.181h1.81c0.08 0.549-0.07 0.95-0.63 0.95-0.63 0-1.02-0.32-1.18-0.95m5.04-1.021-0.12-0.609-0.31-1.601-0.04-0.229h-1.5v0.069l0.03 0.16 0.31 1.601 0.32 1.599 0.31 1.6 0.06 0.32h1.26l0.09-0.32 0.07-0.229c0.07 0.07 0.16 0.15 0.27 0.229 0.24 0.171 0.6 0.32 1.14 0.32l-0.09-0.32-0.3-1.1c-0.22 0-0.64 0.04-1.03-0.5-0.17-0.219-0.33-0.53-0.47-0.99m-8.88-2.139c-0.34 0.209-0.62 0.639-0.49 1.429l0.37 1.7 0.35 1.6 0.35 1.58 0.03 0.16h1.42l-0.03-0.16-0.28-1.26h0.78l-0.07-0.32-0.16-0.779h-0.71l-0.15-0.821-0.25-1.309c-0.02-0.101-0.03-0.2-0.01-0.29 0.02-0.261 0.21-0.45 0.8-0.34l-0.16-1.181c-0.04-0.03-0.08-0.059-0.12-0.08-0.29-0.16-0.63-0.16-0.98-0.16-0.12 0-0.36 0.04-0.59 0.16-0.03 0.021-0.07 0.04-0.1 0.071m-0.65 1.349c-0.23-1.58-1.97-1.5-2.36-1.5-0.55 0-1.02 0-1.73 0.16l0.23 1.101c0.71-0.231 1.66-0.151 1.89-0.151 0.48 0 0.55 0.63 0.16 0.781-0.31 0.16-0.63 0.399-1.18 0.63-0.32 0.16-0.71 0.559-0.47 1.58 0.23 1.259 1.97 1.259 2.2 1.259 0.16 0 0.71 0 1.42-0.24l-0.32-1.099c-0.39 0.08-1.1 0.08-1.33 0.16-0.56-0.16-0.32-0.63 0-0.79 0.31-0.08 0.7-0.391 1.02-0.55 0.24-0.24 0.63-0.551 0.47-1.341m-4.72-1.649h-1.34l-0.16 0.309c-0.24-0.16-0.47-0.309-1.18-0.309s-1.66 0.55-1.5 1.649c0.39 2.29 2.99 1.891 3.39 1.891 0.23 0.79-0.4 0.71-0.87 0.71s-1.42-0.16-1.81-0.16l0.24 1.179c0.94 0.16 1.41 0.16 1.73 0.08 2.44 0 2.21-1.729 2.05-2.439zm-6.38 0.069 0.86 4.57-2.05-4.57h-1.34l-0.39 4.65-0.94-4.65h-1.42l1.26 6.46h2.28l0.32-3.93 1.73 3.93h2.44l-1.26-6.46zm18.78 3.36c-0.01-0.379-0.07-0.74-0.12-0.99h-3.07c-0.03-0.25-0.01-0.449 0.04-0.609 0.19-0.571 0.87-0.571 1.3-0.571 0.63 0 1.42 0.081 1.66 0.151l-0.24-1.101c-0.07-0.03-0.16-0.059-0.27-0.08-0.44-0.099-1.11-0.149-1.62-0.149-0.39 0-0.72 0.059-0.99 0.149-0.88 0.3-1.25 1.011-1.39 1.601-0.11 0.439-0.09 0.809-0.06 0.92 0 0.09 0.03 0.349 0.13 0.679 0.14 0.51 0.45 1.18 1.09 1.6 0.37 0.24 0.84 0.4 1.46 0.4 0.69 0 1.16-0.16 1.47-0.4 0.51-0.399 0.63-1.029 0.61-1.6m3.59 0.741c0.09 0.32 0.21 0.599 0.35 0.859 0.31 0.58 0.74 1.011 1.2 1.301 0.01 0.01 0.02 0.019 0.03 0.019-0.62 3.37-2.3 6.37-4.68 8.641-0.02 0.019-0.03 0.039-0.05 0.05-2.87 2.719-6.73 4.38-10.99 4.38-8.83 0-15.99-7.161-15.99-15.991 0-8.839 7.16-16 15.99-16 3.61 0 6.95 1.201 9.62 3.21 3.06 2.321 5.27 5.701 6.06 9.601-0.66 0.239-1.26 0.769-1.54 1.59-0.15 0.449-0.21 0.979-0.14 1.599 0.03 0.231 0.07 0.481 0.14 0.741m-5.6 0.24c-0.63 0-1.02-0.32-1.18-0.95h1.81c0.08 0.549-0.07 0.95-0.63 0.95m2.01-0.981c-0.01-0.379-0.07-0.74-0.12-0.99h-3.07c-0.03-0.25-0.01-0.449 0.04-0.609h3.37l0.32 1.599zm-14.69-1.15c-0.47-0.31-0.63-0.869-0.08-1.02 0.48-0.16 1.11 0.151 1.26 0.63l0.08 0.55c-0.23 0-0.79 0.16-1.26-0.16m9.93 0.471c0 0.09 0.03 0.349 0.13 0.679h-0.99l-0.25-1.309c-0.02-0.101-0.03-0.2-0.01-0.29h1.18c-0.11 0.439-0.09 0.809-0.06 0.92m2.75 1.66c-0.63 0-1.02-0.32-1.18-0.95h1.81c0.08 0.549-0.07 0.95-0.63 0.95m-12.68-2.131c-0.47-0.31-0.63-0.869-0.08-1.02 0.48-0.16 1.11 0.151 1.26 0.63l0.08 0.55c-0.23 0-0.79 0.16-1.26-0.16m12.68 2.131c-0.63 0-1.02-0.32-1.18-0.95h1.81c0.08 0.549-0.07 0.95-0.63 0.95m2.01-0.981c-0.01-0.379-0.07-0.74-0.12-0.99h-3.07c-0.03-0.25-0.01-0.449 0.04-0.609h3.37l0.32 1.599zm-14.69-1.15c-0.47-0.31-0.63-0.869-0.08-1.02 0.48-0.16 1.11 0.151 1.26 0.63l0.08 0.55c-0.23 0-0.79 0.16-1.26-0.16m9.93 0.471c0 0.09 0.03 0.349 0.13 0.679h-0.99l-0.25-1.309c-0.02-0.101-0.03-0.2-0.01-0.29h1.18c-0.11 0.439-0.09 0.809-0.06 0.92m2.75 1.66c-0.63 0-1.02-0.32-1.18-0.95h1.81c0.08 0.549-0.07 0.95-0.63 0.95m-12.68-2.131c-0.47-0.31-0.63-0.869-0.08-1.02 0.48-0.16 1.11 0.151 1.26 0.63l0.08 0.55c-0.23 0-0.79 0.16-1.26-0.16m12.68 2.131c-0.63 0-1.02-0.32-1.18-0.95h1.81c0.08 0.549-0.07 0.95-0.63 0.95m2.01-0.981c-0.01-0.379-0.07-0.74-0.12-0.99h-3.07c-0.03-0.25-0.01-0.449 0.04-0.609h3.37l0.32 1.599zm-14.69-1.15c-0.47-0.31-0.63-0.869-0.08-1.02 0.48-0.16 1.11 0.151 1.26 0.63l0.08 0.55c-0.23 0-0.79 0.16-1.26-0.16m9.93 0.471c0 0.09 0.03 0.349 0.13 0.679h-0.99l-0.25-1.309c-0.02-0.101-0.03-0.2-0.01-0.29h1.18c-0.11 0.439-0.09 0.809-0.06 0.92m2.75 1.66c-0.63 0-1.02-0.32-1.18-0.95h1.81c0.08 0.549-0.07 0.95-0.63 0.95m-12.68-2.131c-0.47-0.31-0.63-0.869-0.08-1.02 0.48-0.16 1.11 0.151 1.26 0.63l0.08 0.55c-0.23 0-0.79 0.16-1.26-0.16m12.68 2.131c-0.63 0-1.02-0.32-1.18-0.95h1.81c0.08 0.549-0.07 0.95-0.63 0.95m2.01-0.981c-0.01-0.379-0.07-0.74-0.12-0.99h-3.07c-0.03-0.25-0.01-0.449 0.04-0.609h3.37l0.32 1.599zm-14.69-1.15c-0.47-0.31-0.63-0.869-0.08-1.02 0.48-0.16 1.11 0.151 1.26 0.63l0.08 0.55c-0.23 0-0.79 0.16-1.26-0.16m9.93 0.471c0 0.09 0.03 0.349 0.13 0.679h-0.99l-0.25-1.309c-0.02-0.101-0.03-0.2-0.01-0.29h1.18c-0.11 0.439-0.09 0.809-0.06 0.92m2.75 1.66c-0.63 0-1.02-0.32-1.18-0.95h1.81c0.08 0.549-0.07 0.95-0.63 0.95m-12.68-2.131c-0.47-0.31-0.63-0.869-0.08-1.02 0.48-0.16 1.11 0.151 1.26 0.63l0.08 0.55c-0.23 0-0.79 0.16-1.26-0.16m12.68 2.131c-0.63 0-1.02-0.32-1.18-0.95h1.81c0.08 0.549-0.07 0.95-0.63 0.95m-12.68-2.131c-0.47-0.31-0.63-0.869-0.08-1.02 0.48-0.16 1.11 0.151 1.26 0.63l0.08 0.55c-0.23 0-0.79 0.16-1.26-0.16m9.93 0.471c0 0.09 0.03 0.349 0.13 0.679h-0.99l-0.25-1.309c-0.02-0.101-0.03-0.2-0.01-0.29h1.18c-0.11 0.439-0.09 0.809-0.06 0.92m2.75 1.66c-0.63 0-1.02-0.32-1.18-0.95h1.81c0.08 0.549-0.07 0.95-0.63 0.95m-12.68-2.131c-0.47-0.31-0.63-0.869-0.08-1.02 0.48-0.16 1.11 0.151 1.26 0.63l0.08 0.55c-0.23 0-0.79 0.16-1.26-0.16-0.47-0.31-0.63-0.869-0.08-1.02 0.48-0.16 1.11 0.151 1.26 0.63l0.08 0.55c-0.23 0-0.79 0.16-1.26-0.16m9.93 0.471c0 0.09 0.03 0.349 0.13 0.679h-0.99l-0.25-1.309c-0.02-0.101-0.03-0.2-0.01-0.29h1.18c-0.11 0.439-0.09 0.809-0.06 0.92m-9.93-0.471c-0.47-0.31-0.63-0.869-0.08-1.02 0.48-0.16 1.11 0.151 1.26 0.63l0.08 0.55c-0.23 0-0.79 0.16-1.26-0.16-0.47-0.31-0.63-0.869-0.08-1.02 0.48-0.16 1.11 0.151 1.26 0.63l0.08 0.55c-0.23 0-0.79 0.16-1.26-0.16-0.47-0.31-0.63-0.869-0.08-1.02 0.48-0.16 1.11 0.151 1.26 0.63l0.08 0.55c-0.23 0-0.79 0.16-1.26-0.16"
               fill="#2fabf7"
               id="path1755"
               style="fill:#d3dfde;fill-opacity:1" /></g></g><g
           transform="translate(19.61 12.8)"
           id="g1763"><path
             d="m0 0h-0.09c0 0.021-0.01 0.05-0.01 0.07 0.03-0.03 0.07-0.049 0.1-0.07"
             fill="#2fabf7"
             id="path1761" /></g><g
           transform="translate(19.74 17.6)"
           id="g1767"><path
             d="m0 0-0.35-1.6h-0.19c0 0.531 0.03 1.071 0.08 1.6z"
             fill="#2fabf7"
             id="path1765"
             style="fill:#d3dfde;fill-opacity:1" /></g><g
           transform="translate(23 17.6)"
           id="g1771"><path
             d="m0 0c-0.64-0.42-0.95-1.09-1.09-1.6h-0.99l0.15 0.821h0.71l0.16 0.779z"
             fill="#2fabf7"
             id="path1769"
             style="fill:#d3dfde;fill-opacity:1" /></g><g
           transform="translate(25.16 16.03)"
           id="g1775"><path
             d="m0 0h-1.81c0.16 0.63 0.55 0.95 1.18 0.95 0.56 0 0.71-0.4 0.63-0.95"
             fill="#2fabf7"
             id="path1773"
             style="fill:#d3dfde;fill-opacity:1" /></g><g
           transform="translate(21.3 12.88)"
           id="g1779"><path
             d="m0 0 0.16 1.181c-0.59-0.111-0.78 0.079-0.8 0.34h1.18c0.14-0.59 0.51-1.301 1.39-1.601h-2.05c0.04 0.02 0.08 0.05 0.12 0.08"
             fill="#2fabf7"
             id="path1777"
             style="fill:#d3dfde;fill-opacity:1" /></g><g
           transform="translate(27.39 17.6)"
           id="g1783"><path
             d="m0 0-0.31-1.6h-0.54c0.02 0.571-0.1 1.201-0.61 1.6z"
             fill="#2fabf7"
             id="path1781"
             style="fill:#d3dfde;fill-opacity:1" /></g><g
           transform="translate(29.14 17.6)"
           id="g1787"><path
             d="m0 0c-0.11-0.079-0.2-0.159-0.27-0.229l-0.07 0.229z"
             fill="#2fabf7"
             id="path1785"
             style="fill:#d3dfde;fill-opacity:1" /></g><g
           transform="translate(26.11 12.88)"
           id="g1791"><path
             d="m0 0 0.24 1.101c-0.24-0.071-1.03-0.151-1.66-0.151-0.43 0-1.11 0-1.3 0.571h3.37l-0.31-1.601h-0.61c0.11 0.02 0.2 0.05 0.27 0.08"
             fill="#2fabf7"
             id="path1789"
             style="fill:#d3dfde;fill-opacity:1" /></g><g
           transform="translate(30.13 16.74)"
           id="g1795"><path
             d="m0 0c-0.07-0.26-0.11-0.51-0.14-0.74h-1.13c0.39 0.54 0.81 0.5 1.03 0.5l0.3 1.099h0.29c-0.14-0.259-0.26-0.539-0.35-0.859"
             fill="#2fabf7"
             id="path1793"
             style="fill:#d3dfde;fill-opacity:1" /></g><g
           transform="translate(37.77 15.01)"
           id="g1799"><path
             d="m0 0-0.08-0.55c-0.08-0.479-0.79-0.79-1.26-0.63-0.55 0.151-0.39 0.71 0.08 1.02 0.47 0.32 1.02 0.16 1.26 0.16"
             fill="#2fabf7"
             id="path1797"
             style="fill:#d3dfde;fill-opacity:1" /></g><g
           transform="translate(44.46 15.48)"
           id="g1803"><path
             d="m0 0c-0.23-0.79 0.24-1.341 0.71-1.341 0.55 0 0.87 0.401 1.18 1.03 0.16 0.47 0.08 1.101-0.07 1.34-0.48 0.63-1.5 0.151-1.82-1.029m1.42-2.83-0.16 0.39c-0.31-0.161-0.78-0.39-1.26-0.39-1.02 0-1.97 1.41-1.49 3.069 0.71 2.441 1.97 2.281 2.75 2.281 0.63 0 0.79-0.39 1.11-0.63l0.39 2.049h1.5l-1.26-6.769zm-4.49 2.439-0.47-2.45h-1.5l1.03 5.361h1.26l0.15-0.55c0.24 0.24 0.63 0.55 1.42 0.55l-0.39-1.42c-0.4 0-1.03 0.08-1.5-1.491m-2.12 0.391-0.56-2.91h-1.34l-0.15 0.309c-0.24-0.16-0.48-0.309-1.18-0.309-0.71 0-1.66 0.55-1.5 1.649 0.39 2.29 2.99 1.891 3.39 1.891 0.15 0.79-0.4 0.71-0.87 0.71s-1.42-0.16-1.81-0.16l0.23 1.179c0.95 0.161 1.5 0.161 1.74 0.08 2.44 0 2.2-1.729 2.05-2.439m-4.07 16.51c-3.59 0-6.88-1.191-9.55-3.191 0.45-0.429 0.93-0.75 1.33-1.189 0.02-0.011 0.03-0.03 0.05-0.05 0.06-0.07 0.12-0.141 0.17-0.211l-3.32-0.05c-0.52-0.529-1-1.099-1.45-1.689h5.87c0.45-0.54 0.86-1 1.23-1.601h-8.16c-0.3-0.509-0.58-1.04-0.82-1.59h9.91c0.26-0.549 0.49-0.96 0.69-1.549h-11.19c-0.17-0.55-0.33-1.111-0.44-1.691h0.57l0.03 0.16h1.42l-0.03-0.16h10.11c0.02-0.09 0.04-0.189 0.06-0.279 0.01 0.01 0.02 0.019 0.03 0.019 0.6 0.38 1.24 0.54 1.73 0.5 1.18-0.08 1.65-0.469 1.97-0.87l-0.95-0.939c-0.39 0.229-0.63 0.229-1.1 0.229-0.34 0-1-0.24-1.41-0.839v-0.01c-0.17-0.231-0.28-0.531-0.33-0.88 0-0.04-0.01-0.07-0.01-0.11h0.37c0-0.48-0.03-0.93-0.07-1.35 0-0.09-0.01-0.17-0.02-0.25 0.02 0.08 0.02 0.16 0.03 0.239 0.39-0.479 1.1-0.619 1.99-0.34l0.39-1.34c-0.47-0.24-0.94-0.32-1.73-0.32-0.3 0-0.6 0.051-0.9 0.171-0.66 0.239-1.26 0.77-1.54 1.59h-1.86l-0.31-1.601h3.64c-0.12-0.519-0.27-1.04-0.45-1.58h-11.22c0.17-0.55 0.37-1.08 0.6-1.599h9.93c-0.27-0.58-0.58-1.05-0.93-1.59h-8.19c0.32-0.561 0.68-1.101 1.07-1.611l5.89-0.089c-0.5-0.6-1.15-0.97-1.73-1.491 0.03-0.029-0.94 0-2.85 0.031 0.58-0.6 1.22-1.161 1.89-1.661 2.67-2.019 5.99-3.209 9.59-3.209 8.83 0 16 7.16 16 16 0 8.83-7.16 15.99-16 15.99"
             fill="#2fabf7"
             id="path1801"
             style="fill:#d3dfde;fill-opacity:1" /></g><g
           transform="translate(31.92 14.64)"
           id="g1807"><path
             d="m0 0c-0.01-0.079-0.01-0.159-0.03-0.239 0.01 0.08 0.02 0.16 0.02 0.25 0-0.011 0-0.011 0.01-0.011"
             fill="#fff"
             id="path1805" /></g></g></g></g></svg>