<?xml version="1.0" encoding="UTF-8" standalone="no"?>
<svg
   xmlns:dc="http://purl.org/dc/elements/1.1/"
   xmlns:cc="http://creativecommons.org/ns#"
   xmlns:rdf="http://www.w3.org/1999/02/22-rdf-syntax-ns#"
   xmlns:svg="http://www.w3.org/2000/svg"
   xmlns="http://www.w3.org/2000/svg"
   xmlns:sodipodi="http://sodipodi.sourceforge.net/DTD/sodipodi-0.dtd"
   xmlns:inkscape="http://www.inkscape.org/namespaces/inkscape"
   version="1.1"
   viewBox="0 0 92.648 25"
   xml:space="preserve"
   id="svg2493"
   sodipodi:docname="buy-paypal.1.svg"
   inkscape:version="0.92.2 2405546, 2018-03-11"><metadata
     id="metadata2497"><rdf:RDF><cc:Work
         rdf:about=""><dc:format>image/svg+xml</dc:format><dc:type
           rdf:resource="http://purl.org/dc/dcmitype/StillImage" /></cc:Work></rdf:RDF></metadata><sodipodi:namedview
     pagecolor="#ffffff"
     bordercolor="#666666"
     borderopacity="1"
     objecttolerance="10"
     gridtolerance="10"
     guidetolerance="10"
     inkscape:pageopacity="0"
     inkscape:pageshadow="2"
     inkscape:window-width="1920"
     inkscape:window-height="1006"
     id="namedview2495"
     showgrid="false"
     inkscape:zoom="4.6951903"
     inkscape:cx="46.324001"
     inkscape:cy="12.5"
     inkscape:window-x="0"
     inkscape:window-y="0"
     inkscape:window-maximized="1"
     inkscape:current-layer="svg2493" /><defs
     id="defs2457"><clipPath
       id="clipPath18"><path
         d="M 0,31.996 H 118.572 V 0 H 0 Z"
         id="path2448" /></clipPath><clipPath
       id="clipPath30"><path
         d="m0 31.996h43.019v-25.812h-43.019z"
         id="path2451" /></clipPath><clipPath
       id="clipPath54"><path
         d="m44.633 23.392h21.383v-23.392h-21.383z"
         id="path2454" /></clipPath></defs><g
     transform="matrix(1.3333 0 0 -1.3333 0 25)"
     id="g2491"><g
       transform="scale(.58602)"
       id="g2489"><g
         clip-path="url(#clipPath18)"
         id="g2487"><g
           transform="translate(81.199 23.122)"
           id="g2461"><path
             d="m0 0c-0.538-3.226-2.957-3.226-5.377-3.226h-1.613l1.075 6.184c0 0.269 0.269 0.538 0.807 0.538h0.538c1.613 0 3.226 0 4.032-1.076 0.538-0.269 0.538-1.075 0.538-2.42m-1.075 8.873h-9.142c-0.538 0-1.075-0.537-1.345-1.075l-3.763-23.661c0-0.537 0.268-0.807 0.806-0.807h4.839c0.538 0 0.807 0.27 0.807 0.807l1.076 6.721c0 0.538 0.537 1.077 1.344 1.077h2.958c6.183 0 9.68 2.957 10.486 8.872 0.537 2.42 0 4.571-1.076 5.916-1.613 1.343-4.033 2.15-6.99 2.15"
             fill="#2fabf7"
             id="path2459"
             style="fill:#d3dfde;fill-opacity:1" /></g><g
           clip-path="url(#clipPath30)"
           opacity=".25"
           id="g2471"><g
             transform="translate(15.326 23.122)"
             id="g2465"><path
               d="m0 0c-0.538-3.226-2.958-3.226-5.378-3.226h-1.344l1.076 6.184c0 0.269 0.268 0.538 0.806 0.538h0.538c1.614 0 3.226 0 4.032-1.076 0.27-0.269 0.539-1.075 0.27-2.42m-1.076 8.873h-9.142c-0.537 0-1.075-0.537-1.344-1.075l-3.764-23.661c0-0.537 0.269-0.807 0.806-0.807h4.302c0.538 0 1.076 0.538 1.345 1.076l1.075 6.452c0 0.538 0.538 1.077 1.345 1.077h2.958c6.183 0 9.679 2.957 10.485 8.872 0.538 2.42 0 4.571-1.075 5.916-1.613 1.343-3.765 2.15-6.991 2.15"
               fill="#2fabf7"
               id="path2463"
               style="fill:#d3dfde;fill-opacity:1" /></g><g
             transform="translate(35.76 14.788)"
             id="g2469"><path
               d="m0 0c-0.537-2.419-2.42-4.302-5.108-4.302-1.344 0-2.42 0.538-2.957 1.076-0.539 0.807-0.807 1.882-0.807 3.226 0.268 2.42 2.42 4.303 4.84 4.303 1.344 0 2.15-0.538 2.957-1.076 0.806-0.807 1.075-2.151 1.075-3.227m6.185 8.604h-4.302c-0.27 0-0.807-0.269-0.807-0.538l-0.269-1.343-0.269 0.537c-1.075 1.344-2.958 1.882-5.108 1.882-4.84 0-9.142-3.764-9.949-8.872-0.538-2.689 0.269-5.109 1.614-6.722 1.343-1.613 3.226-2.152 5.646-2.152 4.033 0 6.184 2.42 6.184 2.42l-0.269-1.344c0-0.537 0.269-0.807 0.807-0.807h4.033c0.537 0 1.075 0.538 1.344 1.076l2.42 15.057c-0.269 0.268-0.807 0.806-1.075 0.806"
               fill="#2fabf7"
               id="path2467"
               style="fill:#d3dfde;fill-opacity:1" /></g></g><g
           transform="translate(101.36 14.788)"
           id="g2475"><path
             d="m0 0c-0.537-2.419-2.419-4.302-5.108-4.302-1.344 0-2.42 0.538-2.957 1.076-0.539 0.807-0.807 1.882-0.807 3.226 0.268 2.42 2.42 4.303 4.84 4.303 1.344 0 2.15-0.538 2.957-1.076 1.075-0.807 1.345-2.151 1.075-3.227m6.185 8.604h-4.302c-0.27 0-0.807-0.269-0.807-0.538l-0.269-1.343-0.269 0.537c-1.075 1.344-2.957 1.882-5.108 1.882-4.84 0-9.142-3.764-9.949-8.872-0.538-2.689 0.269-5.109 1.614-6.722 1.344-1.613 3.226-2.152 5.646-2.152 4.033 0 6.184 2.42 6.184 2.42l-0.269-1.344c0-0.537 0.269-0.807 0.807-0.807h4.033c0.537 0 1.075 0.538 1.344 1.076l2.42 15.057c-0.269 0.268-0.537 0.806-1.075 0.806"
             fill="#2fabf7"
             id="path2473"
             style="fill:#d3dfde;fill-opacity:1" /></g><g
           clip-path="url(#clipPath54)"
           opacity=".25"
           id="g2481"><g
             transform="translate(65.336 23.392)"
             id="g2479"><path
               d="m0 0h-4.57c-0.538 0-0.807-0.27-1.076-0.538l-5.916-9.142-2.688 8.605c-0.269 0.537-0.538 0.805-1.345 0.805h-4.301c-0.539 0-0.807-0.537-0.807-1.075l4.84-14.25-4.572-6.453c-0.268-0.537 0-1.344 0.539-1.344h4.301c0.538 0 0.807 0.269 1.076 0.538l14.788 21.241c0.806 0.806 0.269 1.613-0.269 1.613"
               fill="#2fabf7"
               id="path2477"
               style="fill:#d3dfde;fill-opacity:1" /></g></g><g
           transform="translate(112.66 31.189)"
           id="g2485"><path
             d="m0 0-3.765-24.198c0-0.538 0.27-0.807 0.807-0.807h3.765c0.538 0 1.075 0.538 1.344 1.075l3.764 23.661c0 0.539-0.269 0.807-0.807 0.807h-4.301c-0.269 0.269-0.538 0-0.807-0.538"
             fill="#2fabf7"
             id="path2483"
             style="fill:#d3dfde;fill-opacity:1" /></g></g></g></g></svg>