<?xml version="1.0" encoding="UTF-8" standalone="no"?>
<svg
   xmlns:dc="http://purl.org/dc/elements/1.1/"
   xmlns:cc="http://creativecommons.org/ns#"
   xmlns:rdf="http://www.w3.org/1999/02/22-rdf-syntax-ns#"
   xmlns:svg="http://www.w3.org/2000/svg"
   xmlns="http://www.w3.org/2000/svg"
   xmlns:sodipodi="http://sodipodi.sourceforge.net/DTD/sodipodi-0.dtd"
   xmlns:inkscape="http://www.inkscape.org/namespaces/inkscape"
   version="1.1"
   viewBox="0 0 79.877 25"
   xml:space="preserve"
   id="svg3129"
   sodipodi:docname="buy-visa.1.svg"
   inkscape:version="0.92.2 2405546, 2018-03-11"><metadata
     id="metadata3133"><rdf:RDF><cc:Work
         rdf:about=""><dc:format>image/svg+xml</dc:format><dc:type
           rdf:resource="http://purl.org/dc/dcmitype/StillImage" /></cc:Work></rdf:RDF></metadata><sodipodi:namedview
     pagecolor="#ffffff"
     bordercolor="#666666"
     borderopacity="1"
     objecttolerance="10"
     gridtolerance="10"
     guidetolerance="10"
     inkscape:pageopacity="0"
     inkscape:pageshadow="2"
     inkscape:window-width="1920"
     inkscape:window-height="1006"
     id="namedview3131"
     showgrid="false"
     inkscape:zoom="5.4458731"
     inkscape:cx="39.938499"
     inkscape:cy="12.5"
     inkscape:window-x="0"
     inkscape:window-y="0"
     inkscape:window-maximized="1"
     inkscape:current-layer="svg3129" /><defs
     id="defs3111"><clipPath
       id="clipPath18"><path
         d="M 0,21.939 H 70.094 V 0 H 0 Z"
         id="path3105" /></clipPath><clipPath
       id="clipPath26"><path
         d="m0 21.933h14.369v-12.482h-14.369z"
         id="path3108" /></clipPath></defs><g
     transform="matrix(1.3333 0 0 -1.3333 -4e-4 25.001)"
     id="g3127"><g
       transform="matrix(.85468 0 0 .85468 4.3596e-5 5.8127e-5)"
       id="g3125"><g
         clip-path="url(#clipPath18)"
         id="g3123"><g
           clip-path="url(#clipPath26)"
           opacity=".25"
           id="g3117"><g
             transform="translate(9.7443 16.256)"
             id="g3115"><path
               d="m0 0-1.838 1.509c0.648-0.478 1.262-0.984 1.838-1.509m4.625-6.426-1.902 9.284c-0.426 1.67-1.799 2.794-3.658 2.819h-8.724l-0.085-0.407c2.375-0.583 4.617-1.592 6.61-2.868l0.574-2.142 3.496-2.18 2.456-3.733 1.233-1.153-0.019 0.429c6e-3 -0.019 0.012-0.03 0.019-0.049"
               fill="#2fabf7"
               id="path3113"
               style="fill:#d3dfde;fill-opacity:1" /></g></g><g
           transform="translate(28.646 21.938)"
           id="g3121"><path
             d="m0 0-3.518-21.896h5.626l3.512 21.896zm17.03-4.478c1.829 0.049 3.171-0.382 4.192-0.807l0.51-0.225 0.766 4.574c-1.112 0.432-2.874 0.906-5.049 0.906-5.553 0-9.466-2.886-9.484-7.017-0.048-3.044 2.795-4.739 4.928-5.754 2.174-1.039 2.916-1.713 2.916-2.637-0.024-1.421-1.762-2.072-3.378-2.072-2.242 0-3.451 0.335-5.28 1.124l-0.741 0.341-0.784-4.764c1.318-0.583 3.749-1.099 6.27-1.129 5.899 0 9.739 2.843 9.788 7.242 0.018 2.418-1.476 4.264-4.721 5.777-1.963 0.973-3.171 1.623-3.171 2.619 0.024 0.9 1.021 1.822 3.238 1.822m13.403-8.687c0.121 0 2.266 7.09 2.266 7.09l1.713-7.09zm6.476 13.093h-4.35c-1.336 0-2.357-0.383-2.94-1.756l-8.348-20.068h5.899l1.622 4.344h6.604l0.845-4.356h5.207zm-45.123 0.066-5.511-14.866-0.571 2.812c-1.215 3.148-4.046 6.416-7.74 8.78l4.982-18.592h5.948l8.84 21.866z"
             fill="#2fabf7"
             id="path3119"
             style="fill:#d3dfde;fill-opacity:1" /></g></g></g></g></svg>