<?xml version="1.0" encoding="UTF-8" standalone="no"?>
<svg
   xmlns:dc="http://purl.org/dc/elements/1.1/"
   xmlns:cc="http://creativecommons.org/ns#"
   xmlns:rdf="http://www.w3.org/1999/02/22-rdf-syntax-ns#"
   xmlns:svg="http://www.w3.org/2000/svg"
   xmlns="http://www.w3.org/2000/svg"
   viewBox="0 0 52.512798 42.666668"
   height="42.666668"
   width="52.512798"
   xml:space="preserve"
   id="svg2"
   version="1.1"><metadata
     id="metadata8"><rdf:RDF><cc:Work
         rdf:about=""><dc:format>image/svg+xml</dc:format><dc:type
           rdf:resource="http://purl.org/dc/dcmitype/StillImage" /><dc:title></dc:title></cc:Work></rdf:RDF></metadata><defs
     id="defs6"><clipPath
       id="clipPath18"
       clipPathUnits="userSpaceOnUse"><path
         id="path16"
         d="M 0,32 H 39.385 V 0 H 0 Z" /></clipPath></defs><g
     transform="matrix(1.3333333,0,0,-1.3333333,0,42.666667)"
     id="g10"><g
       id="g12"><g
         clip-path="url(#clipPath18)"
         id="g14"><g
           transform="translate(39.3846,28.2117)"
           id="g20"><path
             id="path22"
             style="fill:#000000;fill-opacity:1;fill-rule:nonzero;stroke:none"
             d="m 0,0 c -1.465,-0.643 -3.025,-1.068 -4.652,-1.275 1.673,1 2.951,2.57 3.551,4.463 -1.56,-0.931 -3.283,-1.588 -5.12,-1.955 -1.481,1.579 -3.593,2.555 -5.897,2.555 -4.47,0 -8.069,-3.628 -8.069,-8.076 0,-0.64 0.054,-1.255 0.187,-1.841 -6.713,0.327 -12.652,3.544 -16.643,8.445 -0.696,-1.209 -1.105,-2.591 -1.105,-4.081 0,-2.797 1.44,-5.275 3.587,-6.71 -1.297,0.025 -2.57,0.401 -3.649,0.995 v -0.089 c 0,-3.924 2.799,-7.183 6.47,-7.934 -0.657,-0.18 -1.374,-0.266 -2.117,-0.266 -0.518,0 -1.039,0.03 -1.528,0.138 1.046,-3.197 4.014,-5.548 7.544,-5.624 -2.747,-2.149 -6.236,-3.444 -10.011,-3.444 -0.662,0 -1.298,0.029 -1.933,0.111 3.577,-2.307 7.816,-3.624 12.387,-3.624 14.857,0 22.98,12.308 22.98,22.977 0,0.356 -0.011,0.701 -0.029,1.043 C -2.444,-3.055 -1.098,-1.635 0,0" /></g></g></g></g></svg>