<svg version="1.1" viewBox="0 0 27.2 17" xml:space="preserve" xmlns="http://www.w3.org/2000/svg"><defs><clipPath id="clipPath22"><path d="m0 32h51.2v-32h-51.2z"/></clipPath></defs><g transform="matrix(.53125 0 0 -.53125 -.00015938 17)"><g transform="translate(41.6 25.6)"><path d="m0 0v-6.401h-6.399v-3.199h6.399v-6.4h3.2v6.4h6.4v3.199h-6.4v6.401z" fill="#fff"/></g><g clip-path="url(#clipPath22)"><g transform="translate(16 19.2)"><path d="m0 0v-6.4h9.053c-1.323-3.725-4.88-6.4-9.053-6.4-5.293 0-9.601 4.307-9.601 9.6s4.308 9.6 9.601 9.6c2.294 0 4.502-0.822 6.218-2.317l4.204 4.826c-2.88 2.509-6.579 3.891-10.422 3.891-8.822 0-16-7.178-16-16s7.178-16 16-16 16 7.178 16 16v3.2z" fill="#fff"/></g></g></g></svg>
