<?xml version="1.0" encoding="UTF-8" standalone="no"?>
<svg
   xmlns:dc="http://purl.org/dc/elements/1.1/"
   xmlns:cc="http://creativecommons.org/ns#"
   xmlns:rdf="http://www.w3.org/1999/02/22-rdf-syntax-ns#"
   xmlns:svg="http://www.w3.org/2000/svg"
   xmlns="http://www.w3.org/2000/svg"
   xmlns:sodipodi="http://sodipodi.sourceforge.net/DTD/sodipodi-0.dtd"
   xmlns:inkscape="http://www.inkscape.org/namespaces/inkscape"
   xml:space="preserve"
   width="42"
   viewBox="0 0 42 30"
   version="1.1"
   id="Layer_1"
   height="30"
   sodipodi:docname="hamburger_icon_active.svg"
   inkscape:version="0.92.2 2405546, 2018-03-11"><sodipodi:namedview
     pagecolor="#ffffff"
     bordercolor="#666666"
     borderopacity="1"
     objecttolerance="10"
     gridtolerance="10"
     guidetolerance="10"
     inkscape:pageopacity="0"
     inkscape:pageshadow="2"
     inkscape:window-width="1920"
     inkscape:window-height="1006"
     id="namedview6"
     showgrid="false"
     inkscape:zoom="4.72"
     inkscape:cx="35"
     inkscape:cy="25"
     inkscape:window-x="0"
     inkscape:window-y="0"
     inkscape:window-maximized="1"
     inkscape:current-layer="Layer_1" /><metadata
     id="metadata9"><rdf:RDF><cc:Work
         rdf:about=""><dc:format>image/svg+xml</dc:format><dc:type
           rdf:resource="http://purl.org/dc/dcmitype/StillImage" /><dc:title /></cc:Work></rdf:RDF></metadata><defs
     id="defs7" /><path
     style="fill:#10cbb2;fill-opacity:1;stroke-width:1.5"
     id="path2"
     d="M 3,6 H 39 C 40.656,6 42,4.656 42,3 42,1.344 40.656,0 39,0 H 3 C 1.344,0 0,1.344 0,3 0,4.656 1.344,6 3,6 Z m 36,6 H 3 c -1.656,0 -3,1.344 -3,3 0,1.656 1.344,3 3,3 h 36 c 1.656,0 3,-1.344 3,-3 0,-1.656 -1.344,-3 -3,-3 z m 0,12 H 3 c -1.656,0 -3,1.344 -3,3 0,1.656 1.344,3 3,3 h 36 c 1.656,0 3,-1.344 3,-3 0,-1.656 -1.344,-3 -3,-3 z"
     inkscape:connector-curvature="0" /></svg>