<?xml version="1.0" encoding="UTF-8" standalone="no"?>
<svg xmlns="http://www.w3.org/2000/svg" xmlns:xlink="http://www.w3.org/1999/xlink" width="20px" height="18px">
  <path fill-rule="evenodd" fill="rgb(0, 191, 165)" d="M9.897,15.545 L5.445,17.893 C4.803,18.231 4.053,17.684 4.176,16.967 L5.026,11.994 C5.074,11.709 4.980,11.419 4.774,11.217 L1.172,7.695 C0.653,7.187 0.940,6.302 1.657,6.198 L6.635,5.472 C6.920,5.430 7.166,5.251 7.294,4.992 L9.520,0.466 C9.841,-0.185 10.768,-0.185 11.089,0.466 L13.315,4.992 C13.443,5.251 13.689,5.430 13.974,5.472 L18.952,6.198 C19.670,6.302 19.956,7.187 19.437,7.695 L15.835,11.217 C15.629,11.419 15.535,11.709 15.583,11.994 L16.434,16.967 C16.556,17.684 15.806,18.231 15.164,17.893 L10.712,15.545 C10.457,15.410 10.152,15.410 9.897,15.545 Z"></path>
</svg>
