<?xml version="1.0" encoding="UTF-8" standalone="no"?>
<svg xmlns="http://www.w3.org/2000/svg" xmlns:xlink="http://www.w3.org/1999/xlink" width="19px" height="18px">
  <path fill-rule="evenodd" opacity="0.302" fill="rgb(0, 191, 165)" d="M9.200,15.545 L4.748,17.893 C4.106,18.231 3.356,17.684 3.479,16.967 L4.329,11.994 C4.378,11.709 4.283,11.419 4.077,11.217 L0.475,7.695 C-0.044,7.187 0.243,6.302 0.960,6.198 L5.938,5.472 C6.223,5.430 6.469,5.251 6.597,4.992 L8.823,0.466 C9.144,-0.185 10.071,-0.185 10.392,0.466 L12.618,4.992 C12.746,5.251 12.992,5.430 13.277,5.472 L18.255,6.198 C18.973,6.302 19.259,7.187 18.740,7.695 L15.138,11.217 C14.932,11.419 14.838,11.709 14.886,11.994 L15.737,16.967 C15.859,17.684 15.109,18.231 14.467,17.893 L10.015,15.545 C9.760,15.410 9.455,15.410 9.200,15.545 Z"></path>
</svg>
