<svg  version="1.1" viewBox="0 0 24.727 17" xml:space="preserve" xmlns="http://www.w3.org/2000/svg" height="17">
                <defs>
                  <clipPath id="clipPathYouTube18">
                    <path class="social" d="m0 352h512v-352h-512z"/>
                  </clipPath>
                </defs>
                  <g transform="matrix(.048295 0 0 -.048295 0 17)">
                    <g clip-path="url(#clipPathYouTube18)">
                    <g transform="translate(192,80)">
                    <path fill="#fff" class="social" d="m0 0v192l160-96zm298.24 238.08c-13.888 24.704-28.96 29.248-59.648 30.976-30.656 2.08-107.74 2.944-174.53 2.944-66.912 0-144.03-0.864-174.66-2.912-30.624-1.76-45.728-6.272-59.744-31.008-14.304-24.672-21.664-67.168-21.664-141.98v-0.256c0-74.496 7.36-117.31 21.664-141.73 14.016-24.704 29.088-29.184 59.712-31.264 30.656-1.792 107.78-2.848 174.69-2.848 66.784 0 143.87 1.056 174.56 2.816 30.688 2.08 45.76 6.56 59.648 31.264 14.432 24.416 21.728 67.232 21.728 141.73v0.256c0 74.848-7.296 117.34-21.76 142.02"/>
                    </g>
                    </g>
                </g>
              </svg>