<svg  version="1.1" viewBox="0 0 70.58 17" xml:space="preserve" xmlns="http://www.w3.org/2000/svg" height="17">
                <defs>
                  <clipPath id="clipPathLike18">
                    <path class="social" d="m0 17h70.58v-17h-70.58z"/>
                  </clipPath>
                </defs>
                <g transform="matrix(1 0 0 -1 0 17)">
                  <g clip-path="url(#clipPathLike18)">
                    <g transform="translate(40.28 8.2601)">
                      <path fill="#fff" class="social" d="m0 0c-0.06 0.18-0.14 0.34-0.25 0.479-0.109 0.131-0.25 0.241-0.41 0.321-0.159 0.07-0.35 0.11-0.569 0.11-0.231 0-0.431-0.04-0.601-0.13-0.17-0.08-0.31-0.19-0.43-0.33s-0.21-0.301-0.28-0.48c-0.06-0.18-0.109-0.36-0.13-0.55h2.75c0 0.2-0.03 0.4-0.08 0.58-0.06 0.18-0.14 0.34-0.25 0.479-0.109 0.131-0.25 0.241-0.41 0.321-0.159 0.07-0.35 0.11-0.569 0.11-0.231 0-0.431-0.04-0.601-0.13-0.17-0.08-0.31-0.19-0.43-0.33s-0.21-0.301-0.28-0.48c-0.06-0.18-0.109-0.36-0.13-0.55h2.75c0 0.2-0.03 0.4-0.08 0.58m-0.25 0.479c-0.109 0.131-0.25 0.241-0.41 0.321-0.159 0.07-0.35 0.11-0.569 0.11-0.231 0-0.431-0.04-0.601-0.13-0.17-0.08-0.31-0.19-0.43-0.33s-0.21-0.301-0.28-0.48c-0.06-0.18-0.109-0.36-0.13-0.55h2.75c0 0.2-0.03 0.4-0.08 0.58-0.06 0.18-0.14 0.34-0.25 0.479m25.34-4.899c-0.239 0.39-0.529 0.77-0.84 1.16-0.319 0.39-0.66 0.76-1.01 1.12-0.36 0.35-0.719 0.68-1.08 0.98-0.37 0.3-0.72 0.559-1.059 0.77v-4.03h-1.191v8.49h1.191v-3.75c0.279 0.27 0.599 0.579 0.939 0.92 0.34 0.33 0.681 0.68 1.021 1.02 0.33 0.34 0.649 0.67 0.949 0.99 0.301 0.31 0.551 0.59 0.75 0.82h1.43c-0.25-0.28-0.54-0.58-0.85-0.921-0.319-0.339-0.659-0.689-1-1.039-0.35-0.36-0.69-0.711-1.04-1.05-0.34-0.34-0.659-0.661-0.97-0.96 0.36-0.24 0.731-0.54 1.12-0.9 0.39-0.36 0.78-0.75 1.151-1.15 0.379-0.41 0.729-0.83 1.059-1.25 0.33-0.43 0.611-0.83 0.83-1.22zm-7.319 1.38c-0.121-0.32-0.321-0.6-0.571-0.82-0.26-0.23-0.58-0.411-0.979-0.54-0.391-0.13-0.851-0.201-1.391-0.201-0.21 0-0.43 0.021-0.649 0.051-0.221 0.029-0.431 0.07-0.611 0.12-0.19 0.05-0.36 0.1-0.5 0.15-0.15 0.05-0.259 0.09-0.32 0.12l0.221 0.99c0.139-0.06 0.359-0.15 0.679-0.25 0.31-0.11 0.701-0.16 1.15-0.16 0.37 0 0.68 0.04 0.93 0.12s0.451 0.189 0.6 0.33c0.16 0.14 0.271 0.3 0.34 0.48 0.07 0.19 0.11 0.379 0.11 0.589 0 0.311-0.059 0.581-0.16 0.821-0.11 0.24-0.3 0.45-0.57 0.61s-0.63 0.29-1.07 0.37c-0.45 0.09-1.02 0.13-1.709 0.13 0.049 0.4 0.089 0.779 0.12 1.13 0.029 0.35 0.049 0.689 0.08 1.03 0.019 0.33 0.039 0.659 0.059 0.99 0.02 0.34 0.031 0.68 0.05 1.05h4.09v-0.97h-3.1c-9e-3 -0.121-0.02-0.28-0.04-0.49-9e-3 -0.211-0.03-0.43-0.04-0.65-0.019-0.231-0.04-0.44-0.05-0.66-0.02-0.21-0.04-0.38-0.049-0.5 1.229-0.05 2.13-0.321 2.71-0.81 0.58-0.49 0.859-1.15 0.859-1.99 0-0.38-0.06-0.73-0.189-1.04m-6.931-0.01c-0.13-0.31-0.319-0.59-0.59-0.81-0.26-0.23-0.59-0.411-0.99-0.54-0.4-0.13-0.88-0.201-1.43-0.201-0.21 0-0.43 0.021-0.649 0.051-0.231 0.029-0.441 0.07-0.631 0.12-0.199 0.05-0.369 0.1-0.52 0.15-0.139 0.05-0.25 0.09-0.309 0.12l0.219 0.99c0.14-0.06 0.371-0.15 0.69-0.25 0.32-0.11 0.721-0.16 1.181-0.16 0.729 0 1.25 0.14 1.559 0.43 0.32 0.28 0.47 0.67 0.47 1.15 0 0.31-0.06 0.57-0.19 0.78-0.129 0.21-0.299 0.38-0.52 0.51-0.21 0.13-0.46 0.22-0.739 0.27-0.281 0.05-0.571 0.08-0.861 0.08h-0.3v0.93h0.411c0.199 0 0.409 0.02 0.63 0.06 0.219 0.04 0.41 0.11 0.589 0.22 0.18 0.11 0.33 0.25 0.44 0.44 0.12 0.18 0.18 0.41 0.18 0.689 0 0.231-0.049 0.42-0.129 0.591-0.08 0.159-0.191 0.29-0.321 0.4-0.139 0.11-0.29 0.179-0.469 0.23-0.17 0.04-0.361 0.06-0.551 0.06-0.4 0-0.73-0.05-1-0.17-0.28-0.111-0.51-0.23-0.69-0.35l-0.44 0.87c0.091 0.06 0.221 0.13 0.37 0.21 0.15 0.079 0.32 0.15 0.51 0.22 0.18 0.06 0.39 0.12 0.6 0.16 0.22 0.05 0.451 0.07 0.68 0.07 0.45 0 0.84-0.06 1.17-0.17 0.32-0.11 0.59-0.26 0.8-0.46 0.22-0.201 0.381-0.44 0.48-0.71 0.111-0.281 0.16-0.57 0.16-0.89 0-0.44-0.129-0.82-0.379-1.13-0.25-0.32-0.561-0.56-0.92-0.721 0.219-0.069 0.439-0.159 0.639-0.279s0.38-0.28 0.531-0.471c0.149-0.189 0.279-0.399 0.37-0.649 0.089-0.24 0.139-0.52 0.139-0.82 0-0.36-0.059-0.71-0.19-1.02m-9.279 1.65c-0.011-0.1-0.011-0.19-0.021-0.27h-4.229c0.049-0.52 0.229-0.91 0.549-1.2 0.321-0.28 0.79-0.42 1.4-0.42 0.36 0 0.69 0.03 0.99 0.1 0.3 0.06 0.53 0.129 0.7 0.21l0.2-1.22c-0.08-0.04-0.2-0.08-0.339-0.12-0.141-0.05-0.301-0.09-0.491-0.13-0.179-0.03-0.38-0.06-0.59-0.09-0.209-0.021-0.43-0.03-0.65-0.03-0.559 0-1.05 0.08-1.47 0.25-0.42 0.16-0.759 0.4-1.03 0.69-0.269 0.3-0.47 0.65-0.6 1.06-0.129 0.4-0.2 0.84-0.2 1.33 0 0.56 0.09 1.05 0.26 1.48 0.16 0.42 0.391 0.78 0.66 1.06 0.28 0.28 0.6 0.49 0.96 0.63 0.361 0.15 0.72 0.219 1.1 0.219 0.881 0 1.57-0.269 2.06-0.819 0.5-0.55 0.741-1.37 0.741-2.45zm-7.931-3.02c-0.15 0.26-0.319 0.52-0.51 0.8-0.189 0.28-0.399 0.55-0.62 0.809-0.22 0.261-0.439 0.511-0.67 0.741-0.229 0.23-0.45 0.43-0.68 0.59v-2.94h-1.48v9.26l1.48 0.25v-5.6c0.19 0.199 0.39 0.409 0.61 0.63 0.211 0.23 0.421 0.45 0.62 0.68 0.2 0.22 0.4 0.44 0.58 0.639 0.19 0.21 0.34 0.391 0.471 0.551h1.75c-0.401-0.46-0.83-0.93-1.281-1.42-0.46-0.49-0.91-0.97-1.37-1.43 0.25-0.21 0.5-0.46 0.77-0.75 0.27-0.28 0.53-0.59 0.78-0.92 0.26-0.33 0.49-0.65 0.71-0.98s0.41-0.63 0.55-0.91zm-5.949 7.62c-0.181-0.16-0.401-0.24-0.641-0.24-0.25 0-0.47 0.08-0.649 0.24-0.181 0.17-0.271 0.39-0.271 0.66 0 0.289 0.09 0.51 0.271 0.68 0.179 0.16 0.399 0.24 0.649 0.24 0.24 0 0.46-0.08 0.641-0.24 0.179-0.17 0.269-0.391 0.269-0.68 0-0.27-0.09-0.49-0.269-0.66m0.109-7.62h-1.479v6.41h1.479zm-2.6 0h-5.36v8.49h1.54v-7.15h3.82zm-10 2.72c0.24-0.44 0.06-0.99-0.22-1.3 0.15-0.2 0.33-1.71-1.36-1.71h-4.53c-0.32 0-0.559 0.16-0.76 0.28-0.049 0.03-0.16 0.02-0.16 0.02-0.09 0-0.16 0.08-0.16 0.17v4.17c0 0.23 0.11 0.45 0.29 0.58l0.01 0.01c0.16 0.07 0.51 0.55 0.85 1.09 0.34 0.539 0.68 1.16 0.84 1.49-0.01 0.299-0.03 1.42-0.03 1.42-0.01 0.11 0.061 0.52 0.7 0.66 0.5 0.11 0.99-0.14 1.09-0.32 0.021-0.05 0.56-1.07 0.61-1.91 0.01-0.09-0.14-1.03-0.24-1.59h2.68c1.01 0 1.19-1.18 0.61-1.77 0.29-0.56-0.04-1.1-0.22-1.29m-7.93-2.861c0-0.269-0.21-0.489-0.48-0.489h-3.04c-0.25 0-0.469 0.199-0.49 0.449v4.671c0 0.29 0.23 0.52 0.521 0.52h3c0.269 0 0.489-0.22 0.489-0.49zm59.671 13.301h-63.841c-1.86 0-3.37-1.5-3.37-3.36v-10.27c0-1.86 1.51-3.37 3.37-3.37h63.841c1.859 0 3.369 1.51 3.369 3.37v10.27c0 1.86-1.51 3.36-3.369 3.36m-26.931-8.74c-0.06 0.18-0.14 0.34-0.25 0.479-0.109 0.131-0.25 0.241-0.41 0.321-0.159 0.07-0.35 0.11-0.569 0.11-0.231 0-0.431-0.04-0.601-0.13-0.17-0.08-0.31-0.19-0.43-0.33s-0.21-0.301-0.28-0.48c-0.06-0.18-0.109-0.36-0.13-0.55h2.75c0 0.2-0.03 0.4-0.08 0.58-0.06 0.18-0.14 0.34-0.25 0.479-0.109 0.131-0.25 0.241-0.41 0.321-0.159 0.07-0.35 0.11-0.569 0.11-0.231 0-0.431-0.04-0.601-0.13-0.17-0.08-0.31-0.19-0.43-0.33s-0.21-0.301-0.28-0.48c-0.06-0.18-0.109-0.36-0.13-0.55h2.75c0 0.2-0.03 0.4-0.08 0.58-0.06 0.18-0.14 0.34-0.25 0.479-0.109 0.131-0.25 0.241-0.41 0.321-0.159 0.07-0.35 0.11-0.569 0.11-0.231 0-0.431-0.04-0.601-0.13-0.17-0.08-0.31-0.19-0.43-0.33s-0.21-0.301-0.28-0.48c-0.06-0.18-0.109-0.36-0.13-0.55h2.75c0 0.2-0.03 0.4-0.08 0.58-0.06 0.18-0.14 0.34-0.25 0.479-0.109 0.131-0.25 0.241-0.41 0.321-0.159 0.07-0.35 0.11-0.569 0.11-0.231 0-0.431-0.04-0.601-0.13-0.17-0.08-0.31-0.19-0.43-0.33s-0.21-0.301-0.28-0.48c-0.06-0.18-0.109-0.36-0.13-0.55h2.75c0 0.2-0.03 0.4-0.08 0.58"/>
                    </g>
                  </g>
                </g>
              </svg>